<?xml version="1.0" standalone="no"?>
<!DOCTYPE svg PUBLIC "-//W3C//DTD SVG 20010904//EN"
 "http://www.w3.org/TR/2001/REC-SVG-20010904/DTD/svg10.dtd">
<svg version="1.0" xmlns="http://www.w3.org/2000/svg"
 width="400.000000pt" height="400.000000pt" viewBox="0 0 400.000000 400.000000"
 preserveAspectRatio="xMidYMid meet">
<metadata>
Created by potrace 1.14, written by Peter Selinger 2001-2017
</metadata>
<g transform="translate(0.000000,400.000000) scale(0.100000,-0.100000)"
fill="#000000" stroke="none">
<path d="M0 2000 l0 -2000 2000 0 2000 0 0 2000 0 2000 -2000 0 -2000 0 0
-2000z m2040 1545 l0 -105 35 0 35 0 0 -100 0 -100 30 0 29 0 3 -102 3 -103
32 -3 32 -3 3 -67 3 -67 33 -3 c28 -3 32 -7 32 -33 0 -26 3 -29 34 -29 33 0
35 -2 38 -37 3 -35 6 -38 36 -41 28 -3 32 -7 32 -33 l0 -29 70 0 70 0 0 -35 0
-35 105 0 105 0 0 35 0 35 70 0 70 0 0 30 c0 27 3 30 29 30 27 0 30 3 33 38 3
35 5 37 41 40 l38 3 -3 67 -3 67 -37 3 -38 3 0 100 0 99 -30 0 -30 0 0 135 0
135 30 0 30 0 0 -65 0 -65 35 0 c33 0 35 -2 35 -35 0 -33 2 -35 35 -35 l35 0
0 -70 0 -70 35 0 c33 0 35 -2 35 -35 0 -33 2 -35 35 -35 l35 0 0 -205 0 -205
-35 0 c-33 0 -35 -2 -35 -35 0 -33 -2 -35 -35 -35 l-35 0 0 -70 0 -70 -35 0
-35 0 0 -64 0 -65 -32 -3 -33 -3 -3 -67 -3 -67 -32 -3 -32 -3 -3 -102 -3 -103
-29 0 -29 0 -3 103 -3 102 -32 3 c-28 3 -32 7 -35 35 l-3 32 -170 0 -170 0 -3
-32 c-3 -28 -7 -32 -35 -35 -28 -3 -32 -7 -35 -35 -3 -28 -7 -32 -35 -35 -28
-3 -32 -7 -35 -35 -3 -28 -7 -32 -35 -35 l-32 -3 -3 -67 -3 -68 36 0 c33 0 35
-2 35 -35 0 -33 2 -35 35 -35 33 0 35 -2 35 -35 0 -33 2 -35 34 -35 32 0 35
-3 38 -32 3 -29 7 -33 36 -36 l32 -3 0 -240 0 -239 35 0 35 0 0 240 0 240 70
0 70 0 0 35 0 35 70 0 70 0 0 35 c0 33 2 35 35 35 l35 0 0 70 0 70 30 0 c28 0
30 -3 30 -35 0 -34 1 -35 40 -35 39 0 40 1 40 35 0 32 2 35 30 35 28 0 30 3
30 35 0 33 2 35 35 35 l35 0 0 70 0 70 70 0 70 0 0 -105 0 -105 -35 0 -35 0 0
-70 0 -70 -35 0 c-33 0 -35 -2 -35 -35 0 -33 -2 -35 -35 -35 -33 0 -35 -2 -35
-35 l0 -35 -70 0 -70 0 0 -29 c0 -26 -4 -30 -32 -33 -29 -3 -33 -7 -36 -35 -3
-28 -7 -32 -35 -35 -28 -3 -32 -7 -35 -35 -3 -29 -7 -33 -33 -33 l-29 0 0 -70
0 -70 -35 0 -35 0 0 -70 0 -70 -35 0 -35 0 0 -70 0 -70 -35 0 c-33 0 -35 2
-35 35 0 33 -2 35 -35 35 -33 0 -35 2 -35 35 0 33 -2 35 -35 35 -33 0 -35 -2
-35 -35 0 -33 -2 -35 -35 -35 -33 0 -35 -2 -35 -35 0 -33 -2 -35 -35 -35 l-35
0 0 -65 0 -65 -30 0 c-27 0 -30 3 -30 30 0 28 -3 30 -35 30 -33 0 -35 2 -35
35 0 33 -2 35 -34 35 -32 0 -35 -3 -38 -32 -3 -29 -7 -33 -35 -36 -32 -3 -33
-2 -33 32 0 34 -2 36 -35 36 -33 0 -35 -2 -35 -35 0 -33 -2 -35 -35 -35 -33 0
-35 2 -35 35 0 33 -2 35 -35 35 -33 0 -35 -2 -35 -35 0 -33 -2 -35 -35 -35
-32 0 -35 -2 -35 -30 0 -27 -3 -30 -30 -30 l-30 0 0 65 0 65 -40 0 c-39 0 -40
1 -40 35 0 32 -2 35 -30 35 -28 0 -30 3 -30 35 0 33 -2 35 -35 35 -33 0 -35
-2 -35 -35 0 -33 -2 -35 -35 -35 -33 0 -35 -2 -35 -35 0 -33 -2 -35 -35 -35
l-35 0 0 70 0 70 -35 0 -35 0 0 70 0 70 -35 0 -35 0 0 70 0 70 -29 0 c-26 0
-30 4 -33 33 -3 29 -6 32 -40 35 -36 3 -38 5 -38 38 0 31 -2 34 -30 34 -27 0
-30 3 -30 30 l0 30 -70 0 -70 0 0 35 c0 33 -2 35 -35 35 -33 0 -35 2 -35 35 0
33 -2 35 -35 35 l-35 0 0 70 0 70 -35 0 -35 0 0 105 0 105 70 0 70 0 0 -69 0
-70 33 -3 c28 -3 32 -7 35 -35 3 -29 7 -33 33 -33 27 0 29 -3 29 -35 0 -34 1
-35 40 -35 39 0 40 1 40 35 0 32 2 35 30 35 l30 0 0 105 0 105 -30 0 c-29 0
-29 0 -32 68 l-3 67 -32 3 -33 3 0 65 0 64 -35 0 -35 0 0 70 0 70 -35 0 c-33
0 -35 2 -35 35 0 33 -2 35 -35 35 l-35 0 0 205 0 205 35 0 c33 0 35 2 35 35 0
33 2 35 35 35 l35 0 0 70 0 70 35 0 c33 0 35 2 35 35 0 33 2 35 35 35 l35 0 0
65 0 65 30 0 30 0 0 -135 0 -135 -35 0 -35 0 0 -99 0 -100 -32 -3 -33 -3 -3
-67 -3 -68 35 0 c33 0 35 -2 38 -37 3 -35 6 -38 36 -41 28 -3 32 -7 32 -33 l0
-29 70 0 70 0 0 -35 0 -35 105 0 105 0 0 35 0 35 70 0 70 0 0 30 c0 27 3 30
29 30 27 0 30 3 33 38 3 35 5 37 41 40 34 3 37 6 37 33 0 26 3 29 30 29 l30 0
0 69 0 70 38 3 37 3 3 103 3 102 29 0 30 0 0 100 0 100 35 0 35 0 0 105 0 105
35 0 35 0 0 -105z m-1862 -892 c3 -29 7 -33 33 -33 27 0 29 -3 29 -35 l0 -35
70 0 70 0 0 -35 0 -35 70 0 70 0 0 -35 c0 -33 -2 -35 -35 -35 l-35 0 0 -64 0
-65 -32 -3 -33 -3 -3 -172 -2 -173 34 0 35 0 3 -137 3 -138 33 -3 c29 -3 32
-6 32 -38 0 -32 2 -34 35 -34 33 0 35 -2 35 -35 0 -33 2 -35 35 -35 32 0 35
-2 35 -29 0 -26 4 -30 33 -33 l32 -3 3 -67 3 -68 -36 0 c-33 0 -35 -2 -35 -35
0 -33 2 -35 35 -35 33 0 35 -2 35 -35 0 -33 2 -35 35 -35 33 0 35 -2 35 -35 0
-33 2 -35 35 -35 33 0 35 -2 35 -35 l0 -35 100 0 100 0 0 -35 c0 -33 -2 -35
-36 -35 -34 0 -35 -1 -32 -32 3 -29 7 -33 35 -36 28 -3 32 -7 35 -35 l3 -32
68 -3 c67 -3 67 -3 67 -32 l0 -30 70 0 70 0 0 -40 0 -40 70 0 70 0 0 -30 0
-30 65 0 65 0 0 -35 0 -35 70 0 70 0 0 -35 0 -35 70 0 70 0 0 -70 0 -70 -35 0
c-33 0 -35 -2 -35 -35 0 -33 -2 -35 -35 -35 -32 0 -35 -2 -35 -30 0 -27 -3
-30 -30 -30 l-30 0 0 65 0 65 -40 0 c-39 0 -40 1 -40 35 l0 35 -65 0 -65 0 0
35 0 35 -105 0 -105 0 0 35 0 35 -105 0 -105 0 0 35 0 35 -64 0 -65 0 -3 32
c-3 29 -7 33 -35 36 -28 3 -32 7 -35 35 -3 28 -7 32 -35 35 -30 3 -33 6 -33
38 l0 34 -70 0 -70 0 0 35 0 35 -70 0 -70 0 0 30 c0 28 3 30 35 30 l35 0 0 70
0 70 -35 0 -35 0 0 70 0 70 -30 0 c-28 0 -30 3 -30 35 0 34 -1 35 -40 35 -39
0 -40 1 -40 35 0 32 -2 35 -29 35 -26 0 -30 4 -33 33 -3 28 -7 32 -35 35 l-32
3 -3 67 -3 67 -32 3 -33 3 0 374 0 374 33 3 32 3 3 68 3 67 -36 0 -35 0 0 70
0 70 -35 0 c-33 0 -35 2 -35 36 0 34 1 35 33 32 28 -3 32 -7 35 -35z m3722 2
c0 -33 -2 -35 -35 -35 l-35 0 0 -70 0 -70 -35 0 -36 0 3 -102 3 -103 33 -3 32
-3 0 -339 0 -339 -32 -3 -33 -3 -3 -67 -3 -67 -32 -3 c-28 -3 -32 -7 -35 -35
-3 -28 -7 -32 -35 -35 -28 -3 -32 -7 -35 -35 -3 -30 -6 -33 -38 -33 -32 0 -34
-2 -34 -35 0 -32 -2 -35 -30 -35 l-30 0 0 -70 0 -70 -35 0 -35 0 0 -70 0 -70
35 0 c32 0 35 -2 35 -30 l0 -30 -70 0 -70 0 0 -35 0 -35 -70 0 -70 0 0 -35 c0
-33 -2 -35 -35 -35 -33 0 -35 -2 -35 -34 0 -32 -3 -35 -32 -38 -29 -3 -33 -7
-36 -35 l-3 -33 -70 0 -69 0 0 -35 0 -35 -100 0 -100 0 0 -35 0 -35 -105 0
-105 0 0 -35 0 -35 -70 0 -70 0 0 -35 c0 -33 -2 -35 -35 -35 l-35 0 0 -65 0
-65 -30 0 c-27 0 -30 3 -30 30 0 28 -3 30 -35 30 -33 0 -35 2 -35 35 0 33 -2
35 -35 35 l-35 0 0 70 0 70 70 0 70 0 0 35 0 35 70 0 70 0 0 35 0 35 65 0 65
0 0 30 0 30 70 0 70 0 0 40 0 40 70 0 70 0 0 30 c0 29 0 29 68 32 l67 3 3 33
c3 28 7 32 33 32 27 0 29 3 29 35 0 32 -2 35 -30 35 -28 0 -30 3 -30 35 l0 35
100 0 100 0 0 35 c0 33 2 35 35 35 33 0 35 2 35 35 0 33 2 35 35 35 33 0 35 2
35 35 0 33 2 35 35 35 33 0 35 2 35 35 0 33 -2 35 -35 35 l-35 0 0 70 0 70 35
0 c32 0 35 2 35 30 0 28 3 30 35 30 33 0 35 2 35 34 0 32 3 35 33 38 28 3 32
7 35 35 3 28 7 32 35 35 l32 3 3 138 3 137 35 0 34 0 -2 173 -3 172 -32 3 -33
3 0 65 0 64 -35 0 c-33 0 -35 2 -35 35 l0 35 70 0 70 0 0 35 0 35 70 0 70 0 0
35 c0 32 2 35 30 35 28 0 30 3 30 35 0 33 2 35 35 35 33 0 35 -2 35 -35z
m-1310 -760 c0 -33 -2 -35 -35 -35 -33 0 -35 2 -35 35 0 33 2 35 35 35 33 0
35 -2 35 -35z"/>
<path d="M1970 3140 l0 -240 -35 0 -35 0 0 -104 0 -105 -32 -3 -33 -3 -3 -137
-3 -138 36 0 35 0 0 -70 0 -70 35 0 35 0 0 -65 0 -65 35 0 35 0 0 -69 0 -70
33 -3 c28 -3 32 -7 35 -35 3 -32 2 -33 -32 -33 l-36 0 0 -70 0 -70 -35 0 -35
0 0 -135 0 -135 -35 0 c-33 0 -35 -2 -35 -34 0 -32 -3 -35 -32 -38 -30 -3 -33
-6 -33 -38 0 -32 3 -35 33 -38 l32 -3 0 -65 0 -64 35 0 c33 0 35 2 35 35 0 33
2 35 35 35 33 0 35 -2 35 -35 0 -33 2 -35 35 -35 l35 0 0 64 0 65 33 3 c29 3
32 6 32 38 0 32 -3 35 -32 38 l-33 3 0 170 0 169 35 0 35 0 -2 173 -3 172 -32
3 -32 3 -3 67 -3 67 -32 3 -33 3 0 65 0 64 -35 0 -35 0 0 140 0 140 35 0 35 0
0 99 0 100 33 3 32 3 3 173 2 172 -35 0 -35 0 0 70 0 70 -35 0 -35 0 0 -240z"/>
<path d="M1210 2176 c0 -32 -3 -35 -32 -38 l-33 -3 -3 -102 -3 -103 -34 0 -35
0 0 -70 0 -70 35 0 c33 0 35 -2 35 -35 l0 -35 70 0 70 0 0 -35 0 -35 70 0 70
0 0 -240 0 -240 35 0 35 0 0 239 0 240 33 3 c28 3 32 7 35 36 3 28 7 32 33 32
27 0 29 3 29 35 0 34 1 35 40 35 39 0 40 1 40 35 0 32 2 35 30 35 l30 0 0 70
0 70 -29 0 c-26 0 -30 4 -33 33 -3 29 -6 32 -40 35 -36 3 -38 5 -38 38 0 31
-3 34 -29 34 -26 0 -30 4 -33 33 l-3 32 -172 3 -173 2 0 -34z m280 -281 c0
-33 -2 -35 -35 -35 -33 0 -35 2 -35 35 0 33 2 35 35 35 33 0 35 -2 35 -35z"/>
</g>
</svg>
